<?xml version="1.0" encoding="UTF-8" standalone="no"?>
<svg xmlns="http://www.w3.org/2000/svg"
   xmlns:svg="http://www.w3.org/2000/svg"
   viewBox="0 0 99.991339 36.367279">
   <metadata />
   <defs>
   </defs>
   <title>Brand marker Fellowmind</title>
   <style>
      #wm {
         animation-name: fadeIn;
         animation-duration: 3s;
         animation-iteration-count: 1;
      }
      #wm1 {
         transform-box: fill-box;
         transform-origin: center center;
         animation: rotate 2s linear infinite alternate;
      }
      #wm2 {
         transform-box: fill-box;
         transform-origin: center center;
         animation: rotate 2s linear infinite alternate;
         animation-delay: 300ms;
      }
      #wm3 {
         transform-box: fill-box;
         transform-origin: center center;
         animation: rotate 2s linear infinite alternate;
         animation-delay: 150ms;
      }
      #wm4 {
         transform-box: fill-box;
         transform-origin: center center;
         animation: rotate 2s linear infinite alternate;
         animation-delay: 450ms;
      }

      @keyframes rotate {
         0% {
            opacity: 0.9;
         }
         5% {
            transform: rotateY(0deg);
         }
         100% {
            transform: rotateY(360deg);
            opacity: 0.7;
            fill: lightgray;
         }
      }

      @keyframes fadeIn {
         from {
            opacity: 0;
         }
         to {
            opacity: 1;
         }
      }
   </style>
   <g id="wm" transform="translate(-57.184165,-44.313887)">
      <path id="wm1" d="m 66.13688,63.067484 c -4.923993,-9.67615 -8.952715,-17.618481 -8.952715,-17.649623 0,-0.03114 2.601573,-0.05887 5.781274,-0.06162 4.550254,-0.0039 5.809946,0.01789 5.915925,0.102456 0.07406,0.0591 2.238286,4.2794 4.809395,9.37845 2.571109,5.09905 4.909568,9.666883 5.196575,10.15074 0.592753,0.999306 1.439503,1.966058 1.950217,2.226605 0.190323,0.0971 0.537347,0.201598 0.771161,0.232226 0.308838,0.04045 0.418124,0.08939 0.399545,0.178891 -0.03435,0.165458 -6.820638,13.028249 -6.875544,13.031959 -0.02371,0.0016 -4.071839,-7.913938 -8.995833,-17.590088 z" />
      <path id="wm2" d="m 96.78632,79.294994 c -0.395854,-0.762397 -4.157526,-8.148927 -8.359272,-16.41451 -4.201747,-8.265583 -7.90994,-15.554603 -8.240432,-16.197821 -0.495182,-0.963749 -0.579186,-1.183218 -0.477505,-1.247537 0.07204,-0.04557 2.468512,-0.07859 5.758705,-0.07935 4.401759,-10e-4 5.667271,0.02207 5.78129,0.105442 0.08029,0.05871 2.258888,4.292312 4.841339,9.408013 2.582451,5.115701 4.933865,9.705316 5.225375,10.199143 0.92213,1.562138 1.8982,2.384106 2.83109,2.384106 0.1604,0 0.28125,0.04313 0.28125,0.10037 0,0.09036 -6.419738,12.300765 -6.774485,12.88514 l -0.147622,0.243176 z" />
      <path id="wm3" d="m 123.02644,79.434662 c -0.0688,-0.06883 -2.02985,-3.90741 -4.3578,-8.530166 -4.71688,-9.366557 -5.4267,-10.739506 -5.99225,-11.590213 -0.77602,-1.167298 -1.67057,-1.849666 -2.42739,-1.851638 -0.22314,-5.82e-4 -0.3175,-0.03798 -0.3175,-0.125823 0,-0.118745 6.71427,-12.88259 6.85049,-13.022793 0.0794,-0.08174 17.97581,35.061935 17.90945,35.169306 -0.0274,0.04432 -2.46395,0.07648 -5.79355,0.07648 -4.95729,0 -5.76348,-0.01718 -5.87145,-0.125155 z" />
      <path id="wm4" d="m 145.38649,79.411652 c -0.0722,-0.08149 -0.8166,-1.519767 -1.65425,-3.196167 -3.46413,-6.932821 -7.85593,-15.551941 -8.344,-16.375514 -0.58168,-0.981544 -1.43085,-1.918659 -1.96174,-2.164914 -0.18626,-0.0864 -0.51964,-0.174574 -0.74083,-0.195939 -0.22119,-0.02136 -0.40217,-0.07501 -0.40217,-0.11921 0,-0.173126 6.89388,-13.104046 6.95392,-13.043534 0.0603,0.06083 17.93808,35.158696 17.93808,35.216352 0,0.0149 -2.623,0.02709 -5.82887,0.02709 -5.44488,0 -5.83753,-0.0098 -5.96014,-0.148166 z" />
   </g>
</svg>
